# xmcd
#
# Track frame offsets:
#	150
#	11585
#	31701
#	42811
#	61652
#	70425
#	81662
#	93752
#	102971
#	114418
#	132270
#	145152
#	157252
#	166260
#
# Disc length: 2418 seconds
# Revision: 0
# Processed by: cddbd v1.5.2PL0 Copyright (c) Steve Scherf et al.
# Submitted via: dBpowerAMP V12.0
#
DISCID=b309700e
DTITLE=Annie and Mac - Like A Winding Stream
DYEAR=2009
DGENRE=Country
TTITLE0=Night Train To Memphis
TTITLE1=One By One
TTITLE2=Red Wing
TTITLE3=Faded Coat of Blue
TTITLE4=Red Haired Boy
TTITLE5=Im Too Young To Marry
TTITLE6=When I Stop Dreaming
TTITLE7=Silver Bell
TTITLE8=Got A Little Light
TTITLE9=Dont Say Goodbye If You Love Me
TTITLE10=The Wolf Is At The Door
TTITLE11=Go On and Git
TTITLE12=Mississippi Sawyer
TTITLE13=The Winding Stream
EXTD=
EXTT0=
EXTT1=
EXTT2=
EXTT3=
EXTT4=
EXTT5=
EXTT6=
EXTT7=
EXTT8=
EXTT9=
EXTT10=
EXTT11=
EXTT12=
EXTT13=
PLAYORDER=
